# xmcd CD database file
#
# Track frame offsets:
#	150
#	11225
#	38230
#	62837
#	75912
#	95030
#	102762
#	127287
#	145560
#	158162
#	173880
#	192345
#
# Disc length: 2830 seconds
#
# Revision: 0
# Processed by: cddbd v1.5PL3 Copyright (c) Steve Scherf et al.
# Submitted via: CDex 1.50
#
DISCID=9e0b0c0c
DTITLE=妹尾 武 - 星霜
DYEAR=2003
DGENRE=Instrumental
TTITLE0=北極星 I
TTITLE1=永遠に
TTITLE2=Danny Boy
TTITLE3=18th Variation
TTITLE4=Caribbean Wind
TTITLE5=Distance
TTITLE6=枯れない花
TTITLE7=讃歌
TTITLE8=花のまち
TTITLE9=港が見える丘
TTITLE10=北極星 II
TTITLE11=星霜
EXTD=YEAR: 2003
EXTT0=
EXTT1=
EXTT2=
EXTT3=
EXTT4=
EXTT5=
EXTT6=
EXTT7=
EXTT8=
EXTT9=
EXTT10=
EXTT11=
PLAYORDER=
